<mxfile host="app.diagrams.net" agent="Mozilla/5.0 (Windows NT 10.0; Win64; x64) AppleWebKit/537.36 (KHTML, like Gecko) Chrome/133.0.0.0 Safari/537.36" version="26.0.16">
  <diagram name="Page-1" id="ewF5Gl14Q7uHlRDfD-Uw">
    <mxGraphModel dx="2347" dy="1938" grid="1" gridSize="10" guides="1" tooltips="1" connect="1" arrows="1" fold="1" page="1" pageScale="1" pageWidth="827" pageHeight="1169" math="0" shadow="0">
      <root>
        <mxCell id="0" />
        <mxCell id="1" parent="0" />
        <mxCell id="wNvszSJTGbj_hHc-pR2u-3" value="" style="edgeStyle=orthogonalEdgeStyle;rounded=0;orthogonalLoop=1;jettySize=auto;html=1;" parent="1" source="wNvszSJTGbj_hHc-pR2u-1" target="wNvszSJTGbj_hHc-pR2u-2" edge="1">
          <mxGeometry relative="1" as="geometry" />
        </mxCell>
        <mxCell id="wNvszSJTGbj_hHc-pR2u-1" value="&lt;div style=&quot;color: #383a42;background-color: #f5f5f5;font-family: Consolas, &#39;Courier New&#39;, monospace;font-weight: normal;font-size: 14px;line-height: 19px;white-space: pre;&quot;&gt;&lt;div&gt;&lt;span style=&quot;color: #aca600;&quot;&gt;VIDIOC_QBUF&lt;/span&gt;&lt;/div&gt;&lt;/div&gt;" style="text;whiteSpace=wrap;html=1;" parent="1" vertex="1">
          <mxGeometry x="-510" y="-280" width="90" height="30" as="geometry" />
        </mxCell>
        <mxCell id="wNvszSJTGbj_hHc-pR2u-6" value="" style="edgeStyle=orthogonalEdgeStyle;rounded=0;orthogonalLoop=1;jettySize=auto;html=1;" parent="1" source="wNvszSJTGbj_hHc-pR2u-2" target="wNvszSJTGbj_hHc-pR2u-4" edge="1">
          <mxGeometry relative="1" as="geometry" />
        </mxCell>
        <mxCell id="wNvszSJTGbj_hHc-pR2u-2" value="&lt;div style=&quot;color: #383a42;background-color: #f5f5f5;font-family: Consolas, &#39;Courier New&#39;, monospace;font-weight: normal;font-size: 14px;line-height: 19px;white-space: pre;&quot;&gt;&lt;div&gt;&lt;span style=&quot;color: #4078f2;&quot;&gt;v4l_qbuf&lt;/span&gt;&lt;/div&gt;&lt;/div&gt;" style="text;whiteSpace=wrap;html=1;" parent="1" vertex="1">
          <mxGeometry x="-390" y="-280" width="70" height="30" as="geometry" />
        </mxCell>
        <mxCell id="wNvszSJTGbj_hHc-pR2u-8" value="" style="edgeStyle=orthogonalEdgeStyle;rounded=0;orthogonalLoop=1;jettySize=auto;html=1;" parent="1" source="wNvszSJTGbj_hHc-pR2u-4" target="wNvszSJTGbj_hHc-pR2u-7" edge="1">
          <mxGeometry relative="1" as="geometry" />
        </mxCell>
        <mxCell id="wNvszSJTGbj_hHc-pR2u-4" value="&lt;div style=&quot;color: rgb(56, 58, 66); background-color: rgb(245, 245, 245); font-family: Consolas, &amp;quot;Courier New&amp;quot;, monospace; font-weight: normal; font-size: 14px; line-height: 19px; white-space: pre;&quot;&gt;&lt;div&gt;&lt;span style=&quot;color: rgb(228, 86, 73);&quot;&gt;.vidioc_qbuf&lt;/span&gt;&lt;/div&gt;&lt;div&gt;&lt;span style=&quot;color: rgb(228, 86, 73);&quot;&gt;(&lt;/span&gt;&lt;span style=&quot;color: rgb(64, 120, 242); background-color: light-dark(rgb(245, 245, 245), rgb(26, 26, 26));&quot;&gt;vb2_ioctl_qbuf&lt;/span&gt;&lt;span style=&quot;color: light-dark(rgb(228, 86, 73), rgb(235, 113, 102)); background-color: light-dark(rgb(245, 245, 245), rgb(26, 26, 26));&quot;&gt;)&lt;/span&gt;&lt;/div&gt;&lt;/div&gt;" style="text;whiteSpace=wrap;html=1;align=center;" parent="1" vertex="1">
          <mxGeometry x="-283" y="-290" width="130" height="50" as="geometry" />
        </mxCell>
        <mxCell id="wNvszSJTGbj_hHc-pR2u-10" value="" style="edgeStyle=orthogonalEdgeStyle;rounded=0;orthogonalLoop=1;jettySize=auto;html=1;" parent="1" source="wNvszSJTGbj_hHc-pR2u-7" target="wNvszSJTGbj_hHc-pR2u-9" edge="1">
          <mxGeometry relative="1" as="geometry" />
        </mxCell>
        <mxCell id="nD_dkrYVwPCzra7kgj51-6" style="edgeStyle=orthogonalEdgeStyle;rounded=0;orthogonalLoop=1;jettySize=auto;html=1;exitX=1;exitY=0.5;exitDx=0;exitDy=0;entryX=0;entryY=0.5;entryDx=0;entryDy=0;" edge="1" parent="1" source="wNvszSJTGbj_hHc-pR2u-7" target="nD_dkrYVwPCzra7kgj51-5">
          <mxGeometry relative="1" as="geometry" />
        </mxCell>
        <mxCell id="wNvszSJTGbj_hHc-pR2u-7" value="&lt;div style=&quot;color: #383a42;background-color: #f5f5f5;font-family: Consolas, &#39;Courier New&#39;, monospace;font-weight: normal;font-size: 14px;line-height: 19px;white-space: pre;&quot;&gt;&lt;div&gt;&lt;span style=&quot;color: #4078f2;&quot;&gt;vb2_qbuf&lt;/span&gt;&lt;/div&gt;&lt;/div&gt;" style="text;whiteSpace=wrap;html=1;" parent="1" vertex="1">
          <mxGeometry x="-110" y="-280" width="70" height="30" as="geometry" />
        </mxCell>
        <mxCell id="OIqej2UOMzjBdnWNaWIY-4" style="edgeStyle=orthogonalEdgeStyle;rounded=0;orthogonalLoop=1;jettySize=auto;html=1;exitX=1;exitY=0.5;exitDx=0;exitDy=0;entryX=0;entryY=0.5;entryDx=0;entryDy=0;" parent="1" source="wNvszSJTGbj_hHc-pR2u-9" target="wNvszSJTGbj_hHc-pR2u-11" edge="1">
          <mxGeometry relative="1" as="geometry" />
        </mxCell>
        <mxCell id="nD_dkrYVwPCzra7kgj51-11" style="edgeStyle=orthogonalEdgeStyle;rounded=0;orthogonalLoop=1;jettySize=auto;html=1;exitX=1;exitY=0.5;exitDx=0;exitDy=0;entryX=0;entryY=0.5;entryDx=0;entryDy=0;" edge="1" parent="1" source="wNvszSJTGbj_hHc-pR2u-9" target="wNvszSJTGbj_hHc-pR2u-81">
          <mxGeometry relative="1" as="geometry" />
        </mxCell>
        <mxCell id="nD_dkrYVwPCzra7kgj51-12" style="edgeStyle=orthogonalEdgeStyle;rounded=0;orthogonalLoop=1;jettySize=auto;html=1;exitX=1;exitY=0.5;exitDx=0;exitDy=0;entryX=0;entryY=0.5;entryDx=0;entryDy=0;" edge="1" parent="1" source="wNvszSJTGbj_hHc-pR2u-9" target="wNvszSJTGbj_hHc-pR2u-78">
          <mxGeometry relative="1" as="geometry" />
        </mxCell>
        <mxCell id="nD_dkrYVwPCzra7kgj51-13" style="edgeStyle=orthogonalEdgeStyle;rounded=0;orthogonalLoop=1;jettySize=auto;html=1;exitX=1;exitY=0.5;exitDx=0;exitDy=0;entryX=0;entryY=0.5;entryDx=0;entryDy=0;" edge="1" parent="1" source="wNvszSJTGbj_hHc-pR2u-9" target="nD_dkrYVwPCzra7kgj51-10">
          <mxGeometry relative="1" as="geometry" />
        </mxCell>
        <mxCell id="wNvszSJTGbj_hHc-pR2u-9" value="&lt;div style=&quot;color: #383a42;background-color: #f5f5f5;font-family: Consolas, &#39;Courier New&#39;, monospace;font-weight: normal;font-size: 14px;line-height: 19px;white-space: pre;&quot;&gt;&lt;div&gt;&lt;span style=&quot;color: #4078f2;&quot;&gt;vb2_core_qbuf&lt;/span&gt;&lt;/div&gt;&lt;/div&gt;" style="text;whiteSpace=wrap;html=1;" parent="1" vertex="1">
          <mxGeometry y="-280" width="110" height="30" as="geometry" />
        </mxCell>
        <mxCell id="wNvszSJTGbj_hHc-pR2u-16" value="" style="edgeStyle=orthogonalEdgeStyle;rounded=0;orthogonalLoop=1;jettySize=auto;html=1;" parent="1" source="wNvszSJTGbj_hHc-pR2u-11" target="wNvszSJTGbj_hHc-pR2u-14" edge="1">
          <mxGeometry relative="1" as="geometry" />
        </mxCell>
        <mxCell id="wNvszSJTGbj_hHc-pR2u-11" value="&lt;div style=&quot;color: #383a42;background-color: #f5f5f5;font-family: Consolas, &#39;Courier New&#39;, monospace;font-weight: normal;font-size: 14px;line-height: 19px;white-space: pre;&quot;&gt;&lt;div&gt;&lt;span style=&quot;color: #4078f2;&quot;&gt;__buf_prepare&lt;/span&gt;&lt;/div&gt;&lt;/div&gt;" style="text;whiteSpace=wrap;html=1;" parent="1" vertex="1">
          <mxGeometry x="157.5" y="-350" width="110" height="30" as="geometry" />
        </mxCell>
        <mxCell id="wNvszSJTGbj_hHc-pR2u-14" value="&lt;div style=&quot;color: rgb(56, 58, 66); background-color: rgb(245, 245, 245); font-family: Consolas, &amp;quot;Courier New&amp;quot;, monospace; font-weight: normal; font-size: 14px; line-height: 19px; white-space: pre;&quot;&gt;&lt;div&gt;&lt;span style=&quot;color: rgb(228, 86, 73);&quot;&gt;vb2_ops-&amp;gt;buf_prepare&lt;/span&gt;&lt;/div&gt;&lt;/div&gt;" style="text;whiteSpace=wrap;html=1;" parent="1" vertex="1">
          <mxGeometry x="325" y="-350" width="160" height="30" as="geometry" />
        </mxCell>
        <mxCell id="wNvszSJTGbj_hHc-pR2u-31" value="" style="edgeStyle=orthogonalEdgeStyle;rounded=0;orthogonalLoop=1;jettySize=auto;html=1;" parent="1" source="wNvszSJTGbj_hHc-pR2u-28" target="wNvszSJTGbj_hHc-pR2u-30" edge="1">
          <mxGeometry relative="1" as="geometry" />
        </mxCell>
        <mxCell id="wNvszSJTGbj_hHc-pR2u-28" value="&lt;div style=&quot;color: #383a42;background-color: #f5f5f5;font-family: Consolas, &#39;Courier New&#39;, monospace;font-weight: normal;font-size: 14px;line-height: 19px;white-space: pre;&quot;&gt;&lt;div&gt;&lt;span style=&quot;color: #aca600;&quot;&gt;VIDIOC_STREAMON&lt;/span&gt;&lt;/div&gt;&lt;/div&gt;" style="text;whiteSpace=wrap;html=1;" parent="1" vertex="1">
          <mxGeometry x="-527.5" y="-21.25" width="120" height="32.5" as="geometry" />
        </mxCell>
        <mxCell id="OIqej2UOMzjBdnWNaWIY-31" value="" style="edgeStyle=orthogonalEdgeStyle;rounded=0;orthogonalLoop=1;jettySize=auto;html=1;" parent="1" source="wNvszSJTGbj_hHc-pR2u-29" target="wNvszSJTGbj_hHc-pR2u-33" edge="1">
          <mxGeometry relative="1" as="geometry" />
        </mxCell>
        <mxCell id="wNvszSJTGbj_hHc-pR2u-29" value="&lt;div style=&quot;color: rgb(56, 58, 66); background-color: rgb(245, 245, 245); font-family: Consolas, &amp;quot;Courier New&amp;quot;, monospace; font-weight: normal; font-size: 14px; line-height: 19px; white-space: pre;&quot;&gt;&lt;div&gt;&lt;span style=&quot;color: rgb(228, 86, 73);&quot;&gt;.vidioc_streamon&lt;/span&gt;&lt;/div&gt;&lt;div&gt;&lt;span style=&quot;color: rgb(228, 86, 73);&quot;&gt;(&lt;/span&gt;&lt;span style=&quot;color: rgb(64, 120, 242); background-color: light-dark(rgb(245, 245, 245), rgb(26, 26, 26));&quot;&gt;vb2_ioctl_streamon&lt;/span&gt;&lt;span style=&quot;color: light-dark(rgb(228, 86, 73), rgb(235, 113, 102)); background-color: light-dark(rgb(245, 245, 245), rgb(26, 26, 26));&quot;&gt;)&lt;/span&gt;&lt;/div&gt;&lt;/div&gt;" style="text;whiteSpace=wrap;html=1;align=center;" parent="1" vertex="1">
          <mxGeometry x="-240" y="-30" width="160" height="50" as="geometry" />
        </mxCell>
        <mxCell id="OIqej2UOMzjBdnWNaWIY-30" value="" style="edgeStyle=orthogonalEdgeStyle;rounded=0;orthogonalLoop=1;jettySize=auto;html=1;" parent="1" source="wNvszSJTGbj_hHc-pR2u-30" target="wNvszSJTGbj_hHc-pR2u-29" edge="1">
          <mxGeometry relative="1" as="geometry" />
        </mxCell>
        <mxCell id="wNvszSJTGbj_hHc-pR2u-30" value="&lt;div style=&quot;color: #383a42;background-color: #f5f5f5;font-family: Consolas, &#39;Courier New&#39;, monospace;font-weight: normal;font-size: 14px;line-height: 19px;white-space: pre;&quot;&gt;&lt;div&gt;&lt;span style=&quot;color: #4078f2;&quot;&gt;v4l_streamon&lt;/span&gt;&lt;/div&gt;&lt;/div&gt;" style="text;whiteSpace=wrap;html=1;" parent="1" vertex="1">
          <mxGeometry x="-372.5" y="-20" width="100" height="30" as="geometry" />
        </mxCell>
        <mxCell id="OIqej2UOMzjBdnWNaWIY-32" value="" style="edgeStyle=orthogonalEdgeStyle;rounded=0;orthogonalLoop=1;jettySize=auto;html=1;" parent="1" source="wNvszSJTGbj_hHc-pR2u-33" target="wNvszSJTGbj_hHc-pR2u-35" edge="1">
          <mxGeometry relative="1" as="geometry" />
        </mxCell>
        <mxCell id="wNvszSJTGbj_hHc-pR2u-33" value="&lt;div style=&quot;color: #383a42;background-color: #f5f5f5;font-family: Consolas, &#39;Courier New&#39;, monospace;font-weight: normal;font-size: 14px;line-height: 19px;white-space: pre;&quot;&gt;&lt;div&gt;&lt;span style=&quot;color: #4078f2;&quot;&gt;vb2_core_streamon&lt;/span&gt;&lt;/div&gt;&lt;/div&gt;" style="text;whiteSpace=wrap;html=1;" parent="1" vertex="1">
          <mxGeometry x="-57.5" y="-20" width="140" height="30" as="geometry" />
        </mxCell>
        <mxCell id="OIqej2UOMzjBdnWNaWIY-33" style="edgeStyle=orthogonalEdgeStyle;rounded=0;orthogonalLoop=1;jettySize=auto;html=1;exitX=1;exitY=0.5;exitDx=0;exitDy=0;entryX=0;entryY=0.5;entryDx=0;entryDy=0;" parent="1" source="wNvszSJTGbj_hHc-pR2u-35" target="wNvszSJTGbj_hHc-pR2u-40" edge="1">
          <mxGeometry relative="1" as="geometry" />
        </mxCell>
        <mxCell id="OIqej2UOMzjBdnWNaWIY-34" style="edgeStyle=orthogonalEdgeStyle;rounded=0;orthogonalLoop=1;jettySize=auto;html=1;exitX=1;exitY=0.5;exitDx=0;exitDy=0;entryX=0;entryY=0.5;entryDx=0;entryDy=0;" parent="1" source="wNvszSJTGbj_hHc-pR2u-35" target="wNvszSJTGbj_hHc-pR2u-39" edge="1">
          <mxGeometry relative="1" as="geometry" />
        </mxCell>
        <mxCell id="wNvszSJTGbj_hHc-pR2u-35" value="&lt;div style=&quot;color: #383a42;background-color: #f5f5f5;font-family: Consolas, &#39;Courier New&#39;, monospace;font-weight: normal;font-size: 14px;line-height: 19px;white-space: pre;&quot;&gt;&lt;div&gt;&lt;span style=&quot;color: #4078f2;&quot;&gt;vb2_start_streaming&lt;/span&gt;&lt;/div&gt;&lt;/div&gt;" style="text;whiteSpace=wrap;html=1;" parent="1" vertex="1">
          <mxGeometry x="112.5" y="-20" width="157" height="30" as="geometry" />
        </mxCell>
        <mxCell id="wNvszSJTGbj_hHc-pR2u-37" value="&lt;div style=&quot;color: rgb(56, 58, 66); background-color: rgb(245, 245, 245); font-family: Consolas, &amp;quot;Courier New&amp;quot;, monospace; font-weight: normal; font-size: 14px; line-height: 19px; white-space: pre;&quot;&gt;&lt;div&gt;&lt;span style=&quot;color: rgb(228, 86, 73);&quot;&gt;vb2_ops-&amp;gt;buf_queue&lt;/span&gt;&lt;/div&gt;&lt;/div&gt;" style="text;whiteSpace=wrap;html=1;" parent="1" vertex="1">
          <mxGeometry x="501.5" y="-50" width="146" height="30" as="geometry" />
        </mxCell>
        <mxCell id="OIqej2UOMzjBdnWNaWIY-35" value="" style="edgeStyle=orthogonalEdgeStyle;rounded=0;orthogonalLoop=1;jettySize=auto;html=1;" parent="1" source="wNvszSJTGbj_hHc-pR2u-39" target="wNvszSJTGbj_hHc-pR2u-37" edge="1">
          <mxGeometry relative="1" as="geometry" />
        </mxCell>
        <mxCell id="wNvszSJTGbj_hHc-pR2u-39" value="&lt;div style=&quot;color: #383a42;background-color: #f5f5f5;font-family: Consolas, &#39;Courier New&#39;, monospace;font-weight: normal;font-size: 14px;line-height: 19px;white-space: pre;&quot;&gt;&lt;div&gt;&lt;span style=&quot;color: #4078f2;&quot;&gt;__enqueue_in_driver&lt;/span&gt;&lt;/div&gt;&lt;/div&gt;" style="text;whiteSpace=wrap;html=1;" parent="1" vertex="1">
          <mxGeometry x="311.5" y="-50" width="157" height="30" as="geometry" />
        </mxCell>
        <mxCell id="wNvszSJTGbj_hHc-pR2u-40" value="&lt;div style=&quot;color: rgb(56, 58, 66); background-color: rgb(245, 245, 245); font-family: Consolas, &amp;quot;Courier New&amp;quot;, monospace; font-weight: normal; font-size: 14px; line-height: 19px; white-space: pre;&quot;&gt;&lt;div&gt;&lt;span style=&quot;color: rgb(228, 86, 73);&quot;&gt;vb2_ops-&amp;gt;start_streaming&lt;/span&gt;&lt;/div&gt;&lt;/div&gt;" style="text;whiteSpace=wrap;html=1;" parent="1" vertex="1">
          <mxGeometry x="311.5" y="20" width="190" height="30" as="geometry" />
        </mxCell>
        <mxCell id="wNvszSJTGbj_hHc-pR2u-45" value="" style="edgeStyle=orthogonalEdgeStyle;rounded=0;orthogonalLoop=1;jettySize=auto;html=1;" parent="1" source="wNvszSJTGbj_hHc-pR2u-43" target="wNvszSJTGbj_hHc-pR2u-44" edge="1">
          <mxGeometry relative="1" as="geometry" />
        </mxCell>
        <mxCell id="wNvszSJTGbj_hHc-pR2u-43" value="&lt;div style=&quot;color: #383a42;background-color: #f5f5f5;font-family: Consolas, &#39;Courier New&#39;, monospace;font-weight: normal;font-size: 14px;line-height: 19px;white-space: pre;&quot;&gt;&lt;div&gt;&lt;span style=&quot;color: #aca600;&quot;&gt;VIDIOC_REQBUFS&lt;/span&gt;&lt;/div&gt;&lt;/div&gt;" style="text;whiteSpace=wrap;html=1;" parent="1" vertex="1">
          <mxGeometry x="-490" y="-500" width="120" height="30" as="geometry" />
        </mxCell>
        <mxCell id="wNvszSJTGbj_hHc-pR2u-47" value="" style="edgeStyle=orthogonalEdgeStyle;rounded=0;orthogonalLoop=1;jettySize=auto;html=1;" parent="1" source="wNvszSJTGbj_hHc-pR2u-44" target="wNvszSJTGbj_hHc-pR2u-46" edge="1">
          <mxGeometry relative="1" as="geometry" />
        </mxCell>
        <mxCell id="wNvszSJTGbj_hHc-pR2u-44" value="&lt;div style=&quot;color: #383a42;background-color: #f5f5f5;font-family: Consolas, &#39;Courier New&#39;, monospace;font-weight: normal;font-size: 14px;line-height: 19px;white-space: pre;&quot;&gt;&lt;div&gt;&lt;span style=&quot;color: #4078f2;&quot;&gt;v4l_reqbufs&lt;/span&gt;&lt;/div&gt;&lt;/div&gt;" style="text;whiteSpace=wrap;html=1;" parent="1" vertex="1">
          <mxGeometry x="-330" y="-500" width="90" height="30" as="geometry" />
        </mxCell>
        <mxCell id="wNvszSJTGbj_hHc-pR2u-49" value="" style="edgeStyle=orthogonalEdgeStyle;rounded=0;orthogonalLoop=1;jettySize=auto;html=1;" parent="1" source="wNvszSJTGbj_hHc-pR2u-46" target="wNvszSJTGbj_hHc-pR2u-48" edge="1">
          <mxGeometry relative="1" as="geometry" />
        </mxCell>
        <mxCell id="wNvszSJTGbj_hHc-pR2u-46" value="&lt;div style=&quot;color: rgb(56, 58, 66); background-color: rgb(245, 245, 245); font-family: Consolas, &amp;quot;Courier New&amp;quot;, monospace; font-weight: normal; font-size: 14px; line-height: 19px; white-space: pre;&quot;&gt;&lt;div&gt;&lt;span style=&quot;color: rgb(228, 86, 73);&quot;&gt;.&lt;/span&gt;&lt;span style=&quot;color: rgb(228, 86, 73); background-color: light-dark(rgb(245, 245, 245), rgb(26, 26, 26));&quot;&gt;vidioc_reqbufs&lt;/span&gt;&lt;/div&gt;&lt;div&gt;&lt;span style=&quot;color: rgb(228, 86, 73);&quot;&gt;(&lt;/span&gt;&lt;span style=&quot;color: rgb(64, 120, 242); background-color: light-dark(rgb(245, 245, 245), rgb(26, 26, 26));&quot;&gt;vb2_ioctl_reqbufs&lt;/span&gt;&lt;span style=&quot;background-color: light-dark(rgb(245, 245, 245), rgb(26, 26, 26)); color: light-dark(rgb(228, 86, 73), rgb(235, 113, 102));&quot;&gt;)&lt;/span&gt;&lt;br&gt;&lt;/div&gt;&lt;/div&gt;" style="text;whiteSpace=wrap;html=1;align=center;" parent="1" vertex="1">
          <mxGeometry x="-200" y="-510" width="155" height="50" as="geometry" />
        </mxCell>
        <mxCell id="OIqej2UOMzjBdnWNaWIY-17" style="edgeStyle=orthogonalEdgeStyle;rounded=0;orthogonalLoop=1;jettySize=auto;html=1;exitX=1;exitY=0.5;exitDx=0;exitDy=0;entryX=0;entryY=0.5;entryDx=0;entryDy=0;" parent="1" source="wNvszSJTGbj_hHc-pR2u-48" target="wNvszSJTGbj_hHc-pR2u-50" edge="1">
          <mxGeometry relative="1" as="geometry" />
        </mxCell>
        <mxCell id="OIqej2UOMzjBdnWNaWIY-18" style="edgeStyle=orthogonalEdgeStyle;rounded=0;orthogonalLoop=1;jettySize=auto;html=1;exitX=1;exitY=0.5;exitDx=0;exitDy=0;entryX=0;entryY=0.5;entryDx=0;entryDy=0;" parent="1" source="wNvszSJTGbj_hHc-pR2u-48" target="wNvszSJTGbj_hHc-pR2u-52" edge="1">
          <mxGeometry relative="1" as="geometry" />
        </mxCell>
        <mxCell id="wNvszSJTGbj_hHc-pR2u-48" value="&lt;div style=&quot;color: #383a42;background-color: #f5f5f5;font-family: Consolas, &#39;Courier New&#39;, monospace;font-weight: normal;font-size: 14px;line-height: 19px;white-space: pre;&quot;&gt;&lt;div&gt;&lt;span style=&quot;color: #4078f2;&quot;&gt;vb2_core_reqbufs&lt;/span&gt;&lt;/div&gt;&lt;/div&gt;" style="text;whiteSpace=wrap;html=1;" parent="1" vertex="1">
          <mxGeometry x="10" y="-500" width="130" height="30" as="geometry" />
        </mxCell>
        <mxCell id="wNvszSJTGbj_hHc-pR2u-50" value="&lt;div style=&quot;color: rgb(56, 58, 66); background-color: rgb(245, 245, 245); font-family: Consolas, &amp;quot;Courier New&amp;quot;, monospace; font-weight: normal; font-size: 14px; line-height: 19px; white-space: pre;&quot;&gt;&lt;div&gt;&lt;span style=&quot;color: rgb(228, 86, 73);&quot;&gt;vb2_ops-&amp;gt;queue_setup&lt;/span&gt;&lt;/div&gt;&lt;/div&gt;" style="text;whiteSpace=wrap;html=1;" parent="1" vertex="1">
          <mxGeometry x="186.25" y="-550" width="167.5" height="35" as="geometry" />
        </mxCell>
        <mxCell id="wNvszSJTGbj_hHc-pR2u-55" value="" style="edgeStyle=orthogonalEdgeStyle;rounded=0;orthogonalLoop=1;jettySize=auto;html=1;" parent="1" source="wNvszSJTGbj_hHc-pR2u-52" target="wNvszSJTGbj_hHc-pR2u-54" edge="1">
          <mxGeometry relative="1" as="geometry" />
        </mxCell>
        <mxCell id="nD_dkrYVwPCzra7kgj51-2" style="edgeStyle=orthogonalEdgeStyle;rounded=0;orthogonalLoop=1;jettySize=auto;html=1;exitX=1;exitY=0.5;exitDx=0;exitDy=0;entryX=0;entryY=0.5;entryDx=0;entryDy=0;" edge="1" parent="1" source="wNvszSJTGbj_hHc-pR2u-52" target="nD_dkrYVwPCzra7kgj51-1">
          <mxGeometry relative="1" as="geometry" />
        </mxCell>
        <mxCell id="wNvszSJTGbj_hHc-pR2u-52" value="&lt;div style=&quot;color: #383a42;background-color: #f5f5f5;font-family: Consolas, &#39;Courier New&#39;, monospace;font-weight: normal;font-size: 14px;line-height: 19px;white-space: pre;&quot;&gt;&lt;div&gt;&lt;span style=&quot;color: #4078f2;&quot;&gt;__vb2_queue_alloc&lt;/span&gt;&lt;/div&gt;&lt;/div&gt;" style="text;whiteSpace=wrap;html=1;" parent="1" vertex="1">
          <mxGeometry x="186.25" y="-470" width="137.5" height="30" as="geometry" />
        </mxCell>
        <mxCell id="wNvszSJTGbj_hHc-pR2u-54" value="&lt;div style=&quot;color: rgb(56, 58, 66); background-color: rgb(245, 245, 245); font-family: Consolas, &amp;quot;Courier New&amp;quot;, monospace; font-weight: normal; font-size: 14px; line-height: 19px; white-space: pre;&quot;&gt;&lt;div&gt;&lt;span style=&quot;color: rgb(228, 86, 73);&quot;&gt;&lt;span style=&quot;background-color: light-dark(rgb(245, 245, 245), rgb(26, 26, 26));&quot;&gt;vb2_ops-&amp;gt;&lt;/span&gt;buf_init&lt;/span&gt;&lt;/div&gt;&lt;/div&gt;" style="text;whiteSpace=wrap;html=1;" parent="1" vertex="1">
          <mxGeometry x="399" y="-470" width="140" height="30" as="geometry" />
        </mxCell>
        <mxCell id="wNvszSJTGbj_hHc-pR2u-56" value="&lt;font style=&quot;font-size: 11px; color: rgb(153, 153, 153);&quot;&gt;if(memory==mmap)&lt;/font&gt;" style="text;html=1;align=center;verticalAlign=middle;whiteSpace=wrap;rounded=0;" parent="1" vertex="1">
          <mxGeometry x="390" y="-490" width="108" height="30" as="geometry" />
        </mxCell>
        <mxCell id="OIqej2UOMzjBdnWNaWIY-28" style="edgeStyle=orthogonalEdgeStyle;rounded=0;orthogonalLoop=1;jettySize=auto;html=1;exitX=1;exitY=0.5;exitDx=0;exitDy=0;entryX=0;entryY=0.5;entryDx=0;entryDy=0;" parent="1" source="wNvszSJTGbj_hHc-pR2u-57" target="wNvszSJTGbj_hHc-pR2u-66" edge="1">
          <mxGeometry relative="1" as="geometry" />
        </mxCell>
        <mxCell id="OIqej2UOMzjBdnWNaWIY-29" style="edgeStyle=orthogonalEdgeStyle;rounded=0;orthogonalLoop=1;jettySize=auto;html=1;exitX=1;exitY=0.5;exitDx=0;exitDy=0;entryX=0;entryY=0.5;entryDx=0;entryDy=0;" parent="1" source="wNvszSJTGbj_hHc-pR2u-57" target="wNvszSJTGbj_hHc-pR2u-74" edge="1">
          <mxGeometry relative="1" as="geometry" />
        </mxCell>
        <mxCell id="nD_dkrYVwPCzra7kgj51-21" style="edgeStyle=orthogonalEdgeStyle;rounded=0;orthogonalLoop=1;jettySize=auto;html=1;exitX=1;exitY=0.5;exitDx=0;exitDy=0;entryX=0;entryY=0.5;entryDx=0;entryDy=0;" edge="1" parent="1" source="wNvszSJTGbj_hHc-pR2u-57" target="nD_dkrYVwPCzra7kgj51-20">
          <mxGeometry relative="1" as="geometry" />
        </mxCell>
        <mxCell id="wNvszSJTGbj_hHc-pR2u-57" value="&lt;div style=&quot;color: #383a42;background-color: #f5f5f5;font-family: Consolas, &#39;Courier New&#39;, monospace;font-weight: normal;font-size: 14px;line-height: 19px;white-space: pre;&quot;&gt;&lt;div&gt;&lt;span style=&quot;color: #4078f2;&quot;&gt;vb2_core_dqbuf&lt;/span&gt;&lt;/div&gt;&lt;/div&gt;" style="text;whiteSpace=wrap;html=1;" parent="1" vertex="1">
          <mxGeometry x="13.560000000000002" y="310" width="120" height="30" as="geometry" />
        </mxCell>
        <mxCell id="OIqej2UOMzjBdnWNaWIY-23" value="" style="edgeStyle=orthogonalEdgeStyle;rounded=0;orthogonalLoop=1;jettySize=auto;html=1;" parent="1" source="wNvszSJTGbj_hHc-pR2u-58" target="wNvszSJTGbj_hHc-pR2u-57" edge="1">
          <mxGeometry relative="1" as="geometry" />
        </mxCell>
        <mxCell id="wNvszSJTGbj_hHc-pR2u-58" value="&lt;div style=&quot;color: #383a42;background-color: #f5f5f5;font-family: Consolas, &#39;Courier New&#39;, monospace;font-weight: normal;font-size: 14px;line-height: 19px;white-space: pre;&quot;&gt;&lt;div&gt;&lt;span style=&quot;color: #4078f2;&quot;&gt;vb2_dqbuf&lt;/span&gt;&lt;/div&gt;&lt;/div&gt;" style="text;whiteSpace=wrap;html=1;" parent="1" vertex="1">
          <mxGeometry x="-96.44" y="310" width="80" height="30" as="geometry" />
        </mxCell>
        <mxCell id="OIqej2UOMzjBdnWNaWIY-22" style="edgeStyle=orthogonalEdgeStyle;rounded=0;orthogonalLoop=1;jettySize=auto;html=1;exitX=1;exitY=0.5;exitDx=0;exitDy=0;entryX=0;entryY=0.5;entryDx=0;entryDy=0;" parent="1" source="wNvszSJTGbj_hHc-pR2u-59" target="wNvszSJTGbj_hHc-pR2u-58" edge="1">
          <mxGeometry relative="1" as="geometry" />
        </mxCell>
        <mxCell id="wNvszSJTGbj_hHc-pR2u-59" value="&lt;div style=&quot;color: rgb(56, 58, 66); background-color: rgb(245, 245, 245); font-family: Consolas, &amp;quot;Courier New&amp;quot;, monospace; font-weight: normal; font-size: 14px; line-height: 19px; white-space: pre;&quot;&gt;&lt;div&gt;&lt;span style=&quot;color: rgb(64, 120, 242);&quot;&gt;&lt;div style=&quot;color: rgb(56, 58, 66); line-height: 19px;&quot;&gt;&lt;span style=&quot;color: rgb(228, 86, 73);&quot;&gt;.vidioc_dqbuf&lt;/span&gt;&lt;/div&gt;&lt;/span&gt;&lt;/div&gt;&lt;div&gt;&lt;span style=&quot;color: rgb(64, 120, 242);&quot;&gt;(vb2_ioctl_dqbuf)&lt;/span&gt;&lt;/div&gt;&lt;/div&gt;" style="text;whiteSpace=wrap;html=1;align=center;" parent="1" vertex="1">
          <mxGeometry x="-284.44" y="300" width="140" height="50" as="geometry" />
        </mxCell>
        <mxCell id="OIqej2UOMzjBdnWNaWIY-19" value="" style="edgeStyle=orthogonalEdgeStyle;rounded=0;orthogonalLoop=1;jettySize=auto;html=1;" parent="1" source="wNvszSJTGbj_hHc-pR2u-62" target="wNvszSJTGbj_hHc-pR2u-59" edge="1">
          <mxGeometry relative="1" as="geometry" />
        </mxCell>
        <mxCell id="wNvszSJTGbj_hHc-pR2u-62" value="&lt;div style=&quot;color: #383a42;background-color: #f5f5f5;font-family: Consolas, &#39;Courier New&#39;, monospace;font-weight: normal;font-size: 14px;line-height: 19px;white-space: pre;&quot;&gt;&lt;div&gt;&lt;span style=&quot;color: #4078f2;&quot;&gt;v4l_dqbuf&lt;/span&gt;&lt;/div&gt;&lt;/div&gt;" style="text;whiteSpace=wrap;html=1;" parent="1" vertex="1">
          <mxGeometry x="-386.44" y="310" width="80" height="30" as="geometry" />
        </mxCell>
        <mxCell id="wNvszSJTGbj_hHc-pR2u-65" value="" style="edgeStyle=orthogonalEdgeStyle;rounded=0;orthogonalLoop=1;jettySize=auto;html=1;" parent="1" target="wNvszSJTGbj_hHc-pR2u-62" edge="1">
          <mxGeometry relative="1" as="geometry">
            <mxPoint x="-405.4400000000002" y="325.0588235294117" as="sourcePoint" />
          </mxGeometry>
        </mxCell>
        <mxCell id="wNvszSJTGbj_hHc-pR2u-64" value="&lt;div style=&quot;color: #383a42;background-color: #f5f5f5;font-family: Consolas, &#39;Courier New&#39;, monospace;font-weight: normal;font-size: 14px;line-height: 19px;white-space: pre;&quot;&gt;&lt;div&gt;&lt;span style=&quot;color: #aca600;&quot;&gt;VIDIOC_DQBUF&lt;/span&gt;&lt;/div&gt;&lt;/div&gt;" style="text;whiteSpace=wrap;html=1;" parent="1" vertex="1">
          <mxGeometry x="-510" y="310" width="101" height="30" as="geometry" />
        </mxCell>
        <mxCell id="OIqej2UOMzjBdnWNaWIY-24" value="" style="edgeStyle=orthogonalEdgeStyle;rounded=0;orthogonalLoop=1;jettySize=auto;html=1;" parent="1" source="wNvszSJTGbj_hHc-pR2u-66" target="wNvszSJTGbj_hHc-pR2u-68" edge="1">
          <mxGeometry relative="1" as="geometry" />
        </mxCell>
        <mxCell id="nD_dkrYVwPCzra7kgj51-18" style="edgeStyle=orthogonalEdgeStyle;rounded=0;orthogonalLoop=1;jettySize=auto;html=1;exitX=1;exitY=0.5;exitDx=0;exitDy=0;entryX=0;entryY=0.5;entryDx=0;entryDy=0;" edge="1" parent="1" source="wNvszSJTGbj_hHc-pR2u-66" target="nD_dkrYVwPCzra7kgj51-15">
          <mxGeometry relative="1" as="geometry" />
        </mxCell>
        <mxCell id="wNvszSJTGbj_hHc-pR2u-66" value="&lt;div style=&quot;color: #383a42;background-color: #f5f5f5;font-family: Consolas, &#39;Courier New&#39;, monospace;font-weight: normal;font-size: 14px;line-height: 19px;white-space: pre;&quot;&gt;&lt;div&gt;&lt;span style=&quot;color: #4078f2;&quot;&gt;__vb2_get_done_vb&lt;/span&gt;&lt;/div&gt;&lt;/div&gt;" style="text;whiteSpace=wrap;html=1;" parent="1" vertex="1">
          <mxGeometry x="176.25" y="260" width="140" height="30" as="geometry" />
        </mxCell>
        <mxCell id="OIqej2UOMzjBdnWNaWIY-25" value="" style="edgeStyle=orthogonalEdgeStyle;rounded=0;orthogonalLoop=1;jettySize=auto;html=1;" parent="1" source="wNvszSJTGbj_hHc-pR2u-68" target="wNvszSJTGbj_hHc-pR2u-70" edge="1">
          <mxGeometry relative="1" as="geometry" />
        </mxCell>
        <mxCell id="OIqej2UOMzjBdnWNaWIY-27" style="edgeStyle=orthogonalEdgeStyle;rounded=0;orthogonalLoop=1;jettySize=auto;html=1;exitX=1;exitY=0.5;exitDx=0;exitDy=0;entryX=0;entryY=0.5;entryDx=0;entryDy=0;" parent="1" source="wNvszSJTGbj_hHc-pR2u-68" target="wNvszSJTGbj_hHc-pR2u-72" edge="1">
          <mxGeometry relative="1" as="geometry" />
        </mxCell>
        <mxCell id="wNvszSJTGbj_hHc-pR2u-68" value="&lt;div style=&quot;color: #383a42;background-color: #f5f5f5;font-family: Consolas, &#39;Courier New&#39;, monospace;font-weight: normal;font-size: 14px;line-height: 19px;white-space: pre;&quot;&gt;&lt;div&gt;&lt;span style=&quot;color: #4078f2;&quot;&gt;__vb2_wait_for_done_vb&lt;/span&gt;&lt;/div&gt;&lt;/div&gt;" style="text;whiteSpace=wrap;html=1;" parent="1" vertex="1">
          <mxGeometry x="363.56" y="230" width="180" height="30" as="geometry" />
        </mxCell>
        <mxCell id="wNvszSJTGbj_hHc-pR2u-70" value="&lt;div style=&quot;color: rgb(56, 58, 66); background-color: rgb(245, 245, 245); font-family: Consolas, &amp;quot;Courier New&amp;quot;, monospace; font-weight: normal; font-size: 14px; line-height: 19px; white-space: pre;&quot;&gt;&lt;div&gt;&lt;span style=&quot;color: rgb(228, 86, 73);&quot;&gt;vb2_ops-&amp;gt;wait_prepare&lt;/span&gt;&lt;/div&gt;&lt;/div&gt;" style="text;whiteSpace=wrap;html=1;" parent="1" vertex="1">
          <mxGeometry x="592.56" y="200" width="170" height="30" as="geometry" />
        </mxCell>
        <mxCell id="wNvszSJTGbj_hHc-pR2u-72" value="&lt;div style=&quot;color: rgb(56, 58, 66); background-color: rgb(245, 245, 245); font-family: Consolas, &amp;quot;Courier New&amp;quot;, monospace; font-weight: normal; font-size: 14px; line-height: 19px; white-space: pre;&quot;&gt;&lt;div&gt;&lt;span style=&quot;color: rgb(228, 86, 73);&quot;&gt;vb2_ops-&amp;gt;wait_finish&lt;/span&gt;&lt;/div&gt;&lt;/div&gt;" style="text;whiteSpace=wrap;html=1;" parent="1" vertex="1">
          <mxGeometry x="593.56" y="260" width="170" height="30" as="geometry" />
        </mxCell>
        <mxCell id="wNvszSJTGbj_hHc-pR2u-74" value="&lt;div style=&quot;color: rgb(56, 58, 66); background-color: rgb(245, 245, 245); font-family: Consolas, &amp;quot;Courier New&amp;quot;, monospace; font-weight: normal; font-size: 14px; line-height: 19px; white-space: pre;&quot;&gt;&lt;div&gt;&lt;span style=&quot;color: rgb(228, 86, 73);&quot;&gt;vb2_ops-&amp;gt;buf_finish&lt;/span&gt;&lt;/div&gt;&lt;/div&gt;" style="text;whiteSpace=wrap;html=1;" parent="1" vertex="1">
          <mxGeometry x="177.5" y="330" width="160" height="30" as="geometry" />
        </mxCell>
        <mxCell id="OIqej2UOMzjBdnWNaWIY-11" value="" style="edgeStyle=orthogonalEdgeStyle;rounded=0;orthogonalLoop=1;jettySize=auto;html=1;" parent="1" source="wNvszSJTGbj_hHc-pR2u-78" target="OIqej2UOMzjBdnWNaWIY-10" edge="1">
          <mxGeometry relative="1" as="geometry" />
        </mxCell>
        <mxCell id="OIqej2UOMzjBdnWNaWIY-14" style="edgeStyle=orthogonalEdgeStyle;rounded=0;orthogonalLoop=1;jettySize=auto;html=1;exitX=1;exitY=0.5;exitDx=0;exitDy=0;entryX=0;entryY=0.5;entryDx=0;entryDy=0;" parent="1" source="wNvszSJTGbj_hHc-pR2u-78" target="wNvszSJTGbj_hHc-pR2u-82" edge="1">
          <mxGeometry relative="1" as="geometry" />
        </mxCell>
        <mxCell id="wNvszSJTGbj_hHc-pR2u-78" value="&lt;div style=&quot;color: #383a42;background-color: #f5f5f5;font-family: Consolas, &#39;Courier New&#39;, monospace;font-weight: normal;font-size: 14px;line-height: 19px;white-space: pre;&quot;&gt;&lt;div&gt;&lt;span style=&quot;color: #4078f2;&quot;&gt;vb2_start_streaming&lt;/span&gt;&lt;/div&gt;&lt;/div&gt;" style="text;whiteSpace=wrap;html=1;" parent="1" vertex="1">
          <mxGeometry x="157.5" y="-170" width="157" height="30" as="geometry" />
        </mxCell>
        <mxCell id="wNvszSJTGbj_hHc-pR2u-79" value="&lt;div style=&quot;color: rgb(56, 58, 66); background-color: rgb(245, 245, 245); font-family: Consolas, &amp;quot;Courier New&amp;quot;, monospace; font-weight: normal; font-size: 14px; line-height: 19px; white-space: pre;&quot;&gt;&lt;div&gt;&lt;span style=&quot;color: rgb(228, 86, 73);&quot;&gt;vb2_ops-&amp;gt;buf_queue&lt;/span&gt;&lt;/div&gt;&lt;/div&gt;" style="text;whiteSpace=wrap;html=1;" parent="1" vertex="1">
          <mxGeometry x="346" y="-240" width="146" height="30" as="geometry" />
        </mxCell>
        <mxCell id="OIqej2UOMzjBdnWNaWIY-7" style="edgeStyle=orthogonalEdgeStyle;rounded=0;orthogonalLoop=1;jettySize=auto;html=1;exitX=1;exitY=0.5;exitDx=0;exitDy=0;entryX=0;entryY=0.5;entryDx=0;entryDy=0;" parent="1" source="wNvszSJTGbj_hHc-pR2u-81" target="wNvszSJTGbj_hHc-pR2u-79" edge="1">
          <mxGeometry relative="1" as="geometry" />
        </mxCell>
        <mxCell id="wNvszSJTGbj_hHc-pR2u-81" value="&lt;div style=&quot;color: #383a42;background-color: #f5f5f5;font-family: Consolas, &#39;Courier New&#39;, monospace;font-weight: normal;font-size: 14px;line-height: 19px;white-space: pre;&quot;&gt;&lt;div&gt;&lt;span style=&quot;color: #4078f2;&quot;&gt;__enqueue_in_driver&lt;/span&gt;&lt;/div&gt;&lt;/div&gt;" style="text;whiteSpace=wrap;html=1;" parent="1" vertex="1">
          <mxGeometry x="157.5" y="-240" width="157" height="30" as="geometry" />
        </mxCell>
        <mxCell id="wNvszSJTGbj_hHc-pR2u-82" value="&lt;div style=&quot;color: rgb(56, 58, 66); background-color: rgb(245, 245, 245); font-family: Consolas, &amp;quot;Courier New&amp;quot;, monospace; font-weight: normal; font-size: 14px; line-height: 19px; white-space: pre;&quot;&gt;&lt;div&gt;&lt;span style=&quot;color: rgb(228, 86, 73);&quot;&gt;vb2_ops-&amp;gt;start_streaming&lt;/span&gt;&lt;/div&gt;&lt;/div&gt;" style="text;whiteSpace=wrap;html=1;" parent="1" vertex="1">
          <mxGeometry x="357" y="-130" width="190" height="30" as="geometry" />
        </mxCell>
        <mxCell id="OIqej2UOMzjBdnWNaWIY-1" value="&lt;font style=&quot;font-size: 11px; color: rgb(153, 153, 153);&quot;&gt;之前已经调用过streamon,但buf数量不够, 现在qbuf后够了会执行start_streaming&lt;/font&gt;" style="text;html=1;align=center;verticalAlign=middle;whiteSpace=wrap;rounded=0;" parent="1" vertex="1">
          <mxGeometry x="145" y="-200" width="220" height="30" as="geometry" />
        </mxCell>
        <mxCell id="OIqej2UOMzjBdnWNaWIY-9" value="&lt;font style=&quot;font-size: 11px; color: rgb(153, 153, 153);&quot;&gt;如果之前已经调用过steamon, 则执行buf_queue&lt;/font&gt;" style="text;html=1;align=center;verticalAlign=middle;whiteSpace=wrap;rounded=0;" parent="1" vertex="1">
          <mxGeometry x="145" y="-260" width="250" height="30" as="geometry" />
        </mxCell>
        <mxCell id="OIqej2UOMzjBdnWNaWIY-16" style="edgeStyle=orthogonalEdgeStyle;rounded=0;orthogonalLoop=1;jettySize=auto;html=1;exitX=1;exitY=0.5;exitDx=0;exitDy=0;entryX=0;entryY=0.5;entryDx=0;entryDy=0;" parent="1" source="OIqej2UOMzjBdnWNaWIY-10" target="OIqej2UOMzjBdnWNaWIY-15" edge="1">
          <mxGeometry relative="1" as="geometry" />
        </mxCell>
        <mxCell id="nD_dkrYVwPCzra7kgj51-25" style="edgeStyle=orthogonalEdgeStyle;rounded=0;orthogonalLoop=1;jettySize=auto;html=1;exitX=1;exitY=0.5;exitDx=0;exitDy=0;entryX=0;entryY=0.5;entryDx=0;entryDy=0;" edge="1" parent="1" source="OIqej2UOMzjBdnWNaWIY-10" target="nD_dkrYVwPCzra7kgj51-24">
          <mxGeometry relative="1" as="geometry" />
        </mxCell>
        <mxCell id="OIqej2UOMzjBdnWNaWIY-10" value="&lt;div style=&quot;color: #383a42;background-color: #f5f5f5;font-family: Consolas, &#39;Courier New&#39;, monospace;font-weight: normal;font-size: 14px;line-height: 19px;white-space: pre;&quot;&gt;&lt;div&gt;&lt;span style=&quot;color: #4078f2;&quot;&gt;__enqueue_in_driver&lt;/span&gt;&lt;/div&gt;&lt;/div&gt;" style="text;whiteSpace=wrap;html=1;" parent="1" vertex="1">
          <mxGeometry x="357" y="-170" width="157" height="30" as="geometry" />
        </mxCell>
        <mxCell id="OIqej2UOMzjBdnWNaWIY-15" value="&lt;div style=&quot;color: rgb(56, 58, 66); background-color: rgb(245, 245, 245); font-family: Consolas, &amp;quot;Courier New&amp;quot;, monospace; font-weight: normal; font-size: 14px; line-height: 19px; white-space: pre;&quot;&gt;&lt;div&gt;&lt;span style=&quot;color: rgb(228, 86, 73);&quot;&gt;vb2_ops-&amp;gt;buf_queue&lt;/span&gt;&lt;/div&gt;&lt;/div&gt;" style="text;whiteSpace=wrap;html=1;" parent="1" vertex="1">
          <mxGeometry x="547" y="-170" width="146" height="30" as="geometry" />
        </mxCell>
        <mxCell id="p3EjpBFPJTwsHhxIcUxl-3" value="" style="edgeStyle=orthogonalEdgeStyle;rounded=0;orthogonalLoop=1;jettySize=auto;html=1;" parent="1" source="p3EjpBFPJTwsHhxIcUxl-1" target="p3EjpBFPJTwsHhxIcUxl-2" edge="1">
          <mxGeometry relative="1" as="geometry" />
        </mxCell>
        <mxCell id="p3EjpBFPJTwsHhxIcUxl-1" value="&lt;div style=&quot;color: rgb(56, 58, 66); background-color: rgb(245, 245, 245); font-family: Consolas, &amp;quot;Courier New&amp;quot;, monospace; font-weight: normal; font-size: 14px; line-height: 19px; white-space: pre;&quot;&gt;&lt;div&gt;&lt;span style=&quot;color: rgb(172, 166, 0);&quot;&gt;VIDIOC_STREAMOFF&lt;/span&gt;&lt;/div&gt;&lt;/div&gt;" style="text;whiteSpace=wrap;html=1;" parent="1" vertex="1">
          <mxGeometry x="-492" y="498.75" width="120" height="32.5" as="geometry" />
        </mxCell>
        <mxCell id="p3EjpBFPJTwsHhxIcUxl-2" value="&lt;div style=&quot;color: #383a42;background-color: #f5f5f5;font-family: Consolas, &#39;Courier New&#39;, monospace;font-weight: normal;font-size: 14px;line-height: 19px;white-space: pre;&quot;&gt;&lt;div&gt;&lt;span style=&quot;color: #4078f2;&quot;&gt;v4l_streamoff&lt;/span&gt;&lt;/div&gt;&lt;/div&gt;" style="text;whiteSpace=wrap;html=1;" parent="1" vertex="1">
          <mxGeometry x="-337.5" y="500" width="110" height="30" as="geometry" />
        </mxCell>
        <mxCell id="p3EjpBFPJTwsHhxIcUxl-4" value="&lt;div style=&quot;color: rgb(56, 58, 66); background-color: rgb(245, 245, 245); font-family: Consolas, &amp;quot;Courier New&amp;quot;, monospace; font-weight: normal; font-size: 14px; line-height: 19px; white-space: pre;&quot;&gt;&lt;div&gt;&lt;div style=&quot;line-height: 19px;&quot;&gt;&lt;span style=&quot;color: #e45649;&quot;&gt;.vidioc_streamoff&lt;/span&gt;&lt;/div&gt;&lt;/div&gt;&lt;div&gt;&lt;span style=&quot;color: rgb(228, 86, 73);&quot;&gt;(&lt;/span&gt;&lt;span style=&quot;color: rgb(64, 120, 242); background-color: light-dark(rgb(245, 245, 245), rgb(26, 26, 26));&quot;&gt;vb2_ioctl_streamon&lt;/span&gt;&lt;span style=&quot;color: light-dark(rgb(228, 86, 73), rgb(235, 113, 102)); background-color: light-dark(rgb(245, 245, 245), rgb(26, 26, 26));&quot;&gt;)&lt;/span&gt;&lt;/div&gt;&lt;/div&gt;" style="text;whiteSpace=wrap;html=1;align=center;" parent="1" vertex="1">
          <mxGeometry x="-205" y="490" width="160" height="50" as="geometry" />
        </mxCell>
        <mxCell id="nD_dkrYVwPCzra7kgj51-4" style="edgeStyle=orthogonalEdgeStyle;rounded=0;orthogonalLoop=1;jettySize=auto;html=1;exitX=1;exitY=0.5;exitDx=0;exitDy=0;entryX=0;entryY=0.5;entryDx=0;entryDy=0;" edge="1" parent="1" source="nD_dkrYVwPCzra7kgj51-1" target="nD_dkrYVwPCzra7kgj51-3">
          <mxGeometry relative="1" as="geometry" />
        </mxCell>
        <mxCell id="nD_dkrYVwPCzra7kgj51-1" value="&lt;div style=&quot;color: #383a42;background-color: #f5f5f5;font-family: Consolas, &#39;Courier New&#39;, monospace;font-weight: normal;font-size: 14px;line-height: 19px;white-space: pre;&quot;&gt;&lt;div&gt;&lt;span style=&quot;color: #4078f2;&quot;&gt;vb2_queue_add_buffer&lt;/span&gt;&lt;/div&gt;&lt;/div&gt;" style="text;whiteSpace=wrap;html=1;" vertex="1" parent="1">
          <mxGeometry x="390" y="-520" width="160" height="30" as="geometry" />
        </mxCell>
        <mxCell id="nD_dkrYVwPCzra7kgj51-3" value="&lt;div style=&quot;background-color: rgb(245, 245, 245); font-family: Consolas, &amp;quot;Courier New&amp;quot;, monospace; font-weight: normal; font-size: 14px; line-height: 19px; white-space: pre;&quot;&gt;&lt;div style=&quot;&quot;&gt;&lt;font style=&quot;color: rgb(255, 128, 0);&quot;&gt;&lt;span&gt;q&lt;/span&gt;&lt;span&gt;-&amp;gt;&lt;/span&gt;&lt;span&gt;bufs&lt;/span&gt;&lt;span&gt;[&lt;/span&gt;&lt;span&gt;index&lt;/span&gt;&lt;span&gt;] &lt;/span&gt;&lt;span&gt;=&lt;/span&gt;&lt;span&gt; &lt;/span&gt;&lt;span&gt;vb&lt;/span&gt;&lt;span&gt;;&lt;/span&gt;&lt;/font&gt;&lt;/div&gt;&lt;div style=&quot;&quot;&gt;&lt;font style=&quot;color: rgb(255, 128, 0);&quot;&gt;&lt;span&gt;vb&lt;/span&gt;&lt;span&gt;-&amp;gt;&lt;/span&gt;&lt;span&gt;index&lt;/span&gt;&lt;span&gt; &lt;/span&gt;&lt;span&gt;=&lt;/span&gt;&lt;span&gt; &lt;/span&gt;&lt;span&gt;index&lt;/span&gt;&lt;span&gt;;&lt;/span&gt;&lt;/font&gt;&lt;/div&gt;&lt;div style=&quot;&quot;&gt;&lt;font style=&quot;color: rgb(255, 128, 0);&quot;&gt;&lt;span&gt;vb&lt;/span&gt;&lt;span&gt;-&amp;gt;&lt;/span&gt;&lt;span&gt;vb2_queue&lt;/span&gt;&lt;span&gt; &lt;/span&gt;&lt;span&gt;=&lt;/span&gt;&lt;span&gt; &lt;/span&gt;&lt;span&gt;q&lt;/span&gt;&lt;span&gt;;&lt;/span&gt;&lt;/font&gt;&lt;/div&gt;&lt;div style=&quot;&quot;&gt;&lt;font style=&quot;color: rgb(255, 128, 0);&quot;&gt;&lt;span&gt;set_bit&lt;/span&gt;&lt;span&gt;(&lt;/span&gt;&lt;span&gt;index&lt;/span&gt;&lt;span&gt;, &lt;/span&gt;&lt;span&gt;q&lt;/span&gt;&lt;span&gt;-&amp;gt;&lt;/span&gt;&lt;span&gt;bufs_bitmap&lt;/span&gt;&lt;span&gt;);&lt;/span&gt;&lt;/font&gt;&lt;/div&gt;&lt;/div&gt;" style="text;whiteSpace=wrap;html=1;" vertex="1" parent="1">
          <mxGeometry x="580" y="-550" width="248" height="90" as="geometry" />
        </mxCell>
        <mxCell id="nD_dkrYVwPCzra7kgj51-8" value="" style="edgeStyle=orthogonalEdgeStyle;rounded=0;orthogonalLoop=1;jettySize=auto;html=1;" edge="1" parent="1" source="nD_dkrYVwPCzra7kgj51-5" target="nD_dkrYVwPCzra7kgj51-7">
          <mxGeometry relative="1" as="geometry" />
        </mxCell>
        <mxCell id="nD_dkrYVwPCzra7kgj51-5" value="&lt;div style=&quot;color: #383a42;background-color: #f5f5f5;font-family: Consolas, &#39;Courier New&#39;, monospace;font-weight: normal;font-size: 14px;line-height: 19px;white-space: pre;&quot;&gt;&lt;div&gt;&lt;span style=&quot;color: #4078f2;&quot;&gt;vb2_get_buffer&lt;/span&gt;&lt;/div&gt;&lt;/div&gt;" style="text;whiteSpace=wrap;html=1;" vertex="1" parent="1">
          <mxGeometry y="-390" width="120" height="30" as="geometry" />
        </mxCell>
        <mxCell id="nD_dkrYVwPCzra7kgj51-7" value="&lt;div style=&quot;background-color: rgb(245, 245, 245); font-family: Consolas, &amp;quot;Courier New&amp;quot;, monospace; font-weight: normal; font-size: 14px; line-height: 19px; white-space: pre;&quot;&gt;&lt;div style=&quot;&quot;&gt;&lt;font style=&quot;color: rgb(255, 128, 0);&quot;&gt;&lt;span&gt;return q&lt;/span&gt;&lt;span&gt;-&amp;gt;&lt;/span&gt;&lt;span&gt;bufs&lt;/span&gt;&lt;span&gt;[&lt;/span&gt;&lt;span&gt;index&lt;/span&gt;&lt;span&gt;]&lt;/span&gt;&lt;/font&gt;&lt;/div&gt;&lt;/div&gt;" style="text;whiteSpace=wrap;html=1;" vertex="1" parent="1">
          <mxGeometry x="157.5" y="-390" width="172.5" height="30" as="geometry" />
        </mxCell>
        <mxCell id="nD_dkrYVwPCzra7kgj51-9" value="&lt;font color=&quot;#999999&quot;&gt;&lt;span style=&quot;font-size: 11px;&quot;&gt;找到userspace传入index对应的vb2 queue中的buffer&lt;/span&gt;&lt;/font&gt;" style="text;html=1;align=center;verticalAlign=middle;whiteSpace=wrap;rounded=0;" vertex="1" parent="1">
          <mxGeometry x="-50" y="-420" width="279" height="30" as="geometry" />
        </mxCell>
        <mxCell id="nD_dkrYVwPCzra7kgj51-10" value="&lt;div style=&quot;background-color: rgb(245, 245, 245); font-family: Consolas, &amp;quot;Courier New&amp;quot;, monospace; font-weight: normal; font-size: 14px; line-height: 19px; white-space: pre;&quot;&gt;&lt;div style=&quot;&quot;&gt;&lt;font style=&quot;color: rgb(255, 128, 0);&quot;&gt;list_add_tail(&amp;amp;vb-&amp;gt;queued_entry, &amp;amp;q-&amp;gt;queued_list);&lt;/font&gt;&lt;/div&gt;&lt;div style=&quot;&quot;&gt;&lt;font style=&quot;color: rgb(0, 204, 0);&quot;&gt;&lt;div style=&quot;line-height: 19px;&quot;&gt;vb-&amp;gt;state = VB2_BUF_STATE_QUEUED;&lt;/div&gt;&lt;/font&gt;&lt;/div&gt;&lt;/div&gt;" style="text;whiteSpace=wrap;html=1;" vertex="1" parent="1">
          <mxGeometry x="157.5" y="-310" width="392.5" height="50" as="geometry" />
        </mxCell>
        <mxCell id="nD_dkrYVwPCzra7kgj51-14" value="&lt;font color=&quot;#999999&quot;&gt;&lt;span style=&quot;font-size: 11px;&quot;&gt;加到queue_list&lt;/span&gt;&lt;/font&gt;" style="text;html=1;align=center;verticalAlign=middle;whiteSpace=wrap;rounded=0;" vertex="1" parent="1">
          <mxGeometry x="144" y="-320" width="85" height="30" as="geometry" />
        </mxCell>
        <mxCell id="nD_dkrYVwPCzra7kgj51-15" value="&lt;div style=&quot;background-color: rgb(245, 245, 245); font-family: Consolas, &amp;quot;Courier New&amp;quot;, monospace; font-weight: normal; font-size: 14px; line-height: 19px; white-space: pre;&quot;&gt;&lt;div style=&quot;&quot;&gt;&lt;font style=&quot;color: rgb(255, 128, 0);&quot;&gt;&lt;span&gt;list_del&lt;/span&gt;&lt;span&gt;(&lt;/span&gt;&lt;span&gt;&amp;amp;&lt;/span&gt;&lt;span&gt;(&lt;/span&gt;&lt;span&gt;*&lt;/span&gt;&lt;span&gt;vb&lt;/span&gt;&lt;span&gt;)-&amp;gt;&lt;/span&gt;&lt;span&gt;done_entry&lt;/span&gt;&lt;span&gt;);&lt;/span&gt;&lt;/font&gt;&lt;/div&gt;&lt;/div&gt;" style="text;whiteSpace=wrap;html=1;" vertex="1" parent="1">
          <mxGeometry x="363.56" y="300" width="234" height="30" as="geometry" />
        </mxCell>
        <mxCell id="nD_dkrYVwPCzra7kgj51-19" value="&lt;font color=&quot;#999999&quot;&gt;&lt;span style=&quot;font-size: 11px;&quot;&gt;从done_list中删除&lt;/span&gt;&lt;/font&gt;" style="text;html=1;align=center;verticalAlign=middle;whiteSpace=wrap;rounded=0;" vertex="1" parent="1">
          <mxGeometry x="358.56" y="280" width="105" height="30" as="geometry" />
        </mxCell>
        <mxCell id="nD_dkrYVwPCzra7kgj51-23" value="" style="edgeStyle=orthogonalEdgeStyle;rounded=0;orthogonalLoop=1;jettySize=auto;html=1;" edge="1" parent="1" source="nD_dkrYVwPCzra7kgj51-20" target="nD_dkrYVwPCzra7kgj51-22">
          <mxGeometry relative="1" as="geometry" />
        </mxCell>
        <mxCell id="nD_dkrYVwPCzra7kgj51-20" value="&lt;div style=&quot;color: #383a42;background-color: #f5f5f5;font-family: Consolas, &#39;Courier New&#39;, monospace;font-weight: normal;font-size: 14px;line-height: 19px;white-space: pre;&quot;&gt;&lt;div&gt;&lt;span style=&quot;color: #4078f2;&quot;&gt;__vb2_dqbuf&lt;/span&gt;&lt;/div&gt;&lt;/div&gt;" style="text;whiteSpace=wrap;html=1;" vertex="1" parent="1">
          <mxGeometry x="176.25" y="370" width="94" height="30" as="geometry" />
        </mxCell>
        <mxCell id="nD_dkrYVwPCzra7kgj51-22" value="&lt;div style=&quot;background-color: rgb(245, 245, 245); font-family: Consolas, &amp;quot;Courier New&amp;quot;, monospace; font-weight: normal; font-size: 14px; line-height: 19px; white-space: pre;&quot;&gt;&lt;div style=&quot;&quot;&gt;&lt;font style=&quot;color: rgb(0, 204, 0);&quot;&gt;&lt;span&gt;vb&lt;/span&gt;&lt;span&gt;-&amp;gt;&lt;/span&gt;&lt;span&gt;state&lt;/span&gt;&lt;span&gt; &lt;/span&gt;&lt;span&gt;=&lt;/span&gt;&lt;span&gt; &lt;/span&gt;&lt;span&gt;VB2_BUF_STATE_DEQUEUED&lt;/span&gt;&lt;span&gt;;&lt;/span&gt;&lt;/font&gt;&lt;/div&gt;&lt;/div&gt;" style="text;whiteSpace=wrap;html=1;" vertex="1" parent="1">
          <mxGeometry x="303.56" y="370" width="278.94" height="30" as="geometry" />
        </mxCell>
        <mxCell id="nD_dkrYVwPCzra7kgj51-24" value="&lt;div style=&quot;background-color: rgb(245, 245, 245); font-family: Consolas, &amp;quot;Courier New&amp;quot;, monospace; font-weight: normal; font-size: 14px; line-height: 19px; white-space: pre;&quot;&gt;&lt;div style=&quot;&quot;&gt;&lt;font style=&quot;color: rgb(0, 204, 0);&quot;&gt;&lt;span&gt;vb&lt;/span&gt;&lt;span&gt;-&amp;gt;&lt;/span&gt;&lt;span&gt;state&lt;/span&gt;&lt;span&gt; &lt;/span&gt;&lt;span&gt;=&lt;/span&gt;&lt;span&gt; &lt;/span&gt;&lt;span&gt;VB2_BUF_STATE_ACTIVE&lt;/span&gt;&lt;span&gt;;&lt;/span&gt;&lt;/font&gt;&lt;/div&gt;&lt;/div&gt;" style="text;whiteSpace=wrap;html=1;" vertex="1" parent="1">
          <mxGeometry x="550" y="-200" width="260" height="30" as="geometry" />
        </mxCell>
        <mxCell id="nD_dkrYVwPCzra7kgj51-29" value="" style="edgeStyle=orthogonalEdgeStyle;rounded=0;orthogonalLoop=1;jettySize=auto;html=1;" edge="1" parent="1" source="nD_dkrYVwPCzra7kgj51-26" target="nD_dkrYVwPCzra7kgj51-28">
          <mxGeometry relative="1" as="geometry" />
        </mxCell>
        <mxCell id="nD_dkrYVwPCzra7kgj51-26" value="interrupt" style="text;html=1;align=center;verticalAlign=middle;whiteSpace=wrap;rounded=0;" vertex="1" parent="1">
          <mxGeometry x="-510" y="107.5" width="60" height="30" as="geometry" />
        </mxCell>
        <mxCell id="nD_dkrYVwPCzra7kgj51-27" value="&lt;div style=&quot;background-color: rgb(245, 245, 245); font-family: Consolas, &amp;quot;Courier New&amp;quot;, monospace; font-weight: normal; font-size: 14px; line-height: 19px; white-space: pre;&quot;&gt;&lt;div style=&quot;&quot;&gt;&lt;font&gt;&lt;font style=&quot;color: rgb(255, 128, 0);&quot;&gt;&lt;span&gt;list_add_tail&lt;/span&gt;&lt;span&gt;(&lt;/span&gt;&lt;span&gt;&amp;amp;&lt;/span&gt;&lt;span&gt;vb&lt;/span&gt;&lt;span&gt;-&amp;gt;&lt;/span&gt;&lt;span&gt;done_entry&lt;/span&gt;&lt;span&gt;, &lt;/span&gt;&lt;span&gt;&amp;amp;&lt;/span&gt;&lt;span&gt;q&lt;/span&gt;&lt;span&gt;-&amp;gt;&lt;/span&gt;&lt;span&gt;done_list&lt;/span&gt;&lt;span&gt;);&lt;/span&gt;&lt;/font&gt;&lt;/font&gt;&lt;/div&gt;&lt;div style=&quot;&quot;&gt;&lt;font&gt;&lt;font style=&quot;color: rgb(0, 204, 0);&quot;&gt;&lt;span&gt;vb&lt;/span&gt;&lt;span&gt;-&amp;gt;&lt;/span&gt;&lt;span&gt;state&lt;/span&gt;&lt;span&gt; &lt;/span&gt;&lt;span&gt;=&lt;/span&gt;&lt;span&gt; &lt;/span&gt;&lt;/font&gt;&lt;/font&gt;&lt;font style=&quot;color: rgb(0, 204, 0);&quot;&gt;&lt;span style=&quot;background-color: light-dark(rgb(245, 245, 245), rgb(26, 26, 26));&quot;&gt;&lt;font style=&quot;color: rgb(0, 204, 0);&quot;&gt;VB2_BUF_STATE_DONE&lt;/font&gt;&lt;/span&gt;&lt;span style=&quot;background-color: light-dark(rgb(245, 245, 245), rgb(26, 26, 26));&quot;&gt;;&lt;/span&gt;&lt;/font&gt;&lt;/div&gt;&lt;/div&gt;" style="text;whiteSpace=wrap;html=1;" vertex="1" parent="1">
          <mxGeometry x="-235" y="100" width="362.5" height="45" as="geometry" />
        </mxCell>
        <mxCell id="nD_dkrYVwPCzra7kgj51-30" value="" style="edgeStyle=orthogonalEdgeStyle;rounded=0;orthogonalLoop=1;jettySize=auto;html=1;" edge="1" parent="1" source="nD_dkrYVwPCzra7kgj51-28" target="nD_dkrYVwPCzra7kgj51-27">
          <mxGeometry relative="1" as="geometry" />
        </mxCell>
        <mxCell id="nD_dkrYVwPCzra7kgj51-28" value="&lt;div style=&quot;color: #383a42;background-color: #f5f5f5;font-family: Consolas, &#39;Courier New&#39;, monospace;font-weight: normal;font-size: 14px;line-height: 19px;white-space: pre;&quot;&gt;&lt;div&gt;&lt;span style=&quot;color: #4078f2;&quot;&gt;vb2_buffer_done&lt;/span&gt;&lt;/div&gt;&lt;/div&gt;" style="text;whiteSpace=wrap;html=1;" vertex="1" parent="1">
          <mxGeometry x="-400" y="107.5" width="130" height="30" as="geometry" />
        </mxCell>
      </root>
    </mxGraphModel>
  </diagram>
</mxfile>
